# xmcd
#
# Track frame offsets: 
#        150
#        17165
#        29455
#        44324
#        56837
#        68204
#        83101
#        94462
#        109060
#        123884
#        134156
#        152004
#        166160
#
# Disc length: 2453 seconds
#
# Revision: 0
# Processed by: cddbd v1.5.2PL0 Copyright (c) Steve Scherf et al.
# Submitted via: ExactAudioCopy v0.90b4
#
DISCID=b109930d
DTITLE=Dale Watson - Carryin' On
DYEAR=2010
DGENRE=Country
TTITLE0=Carryin' On This Way
TTITLE1=Hey Brown Bottle
TTITLE2=Flowers In Your Hair
TTITLE3=You're Always On My Mind
TTITLE4=Ain't That Livin'
TTITLE5=Heart Of Stone
TTITLE6=I'll Show Ya
TTITLE7=How To Break Your Own Heart
TTITLE8=For A Little While
TTITLE9=Whatever
TTITLE10=Your Love I'm Gonna Miss
TTITLE11=Don't Wanna Go Home Song
TTITLE12=Hello, I'm An Old Country Song
EXTD=
EXTT0=
EXTT1=
EXTT2=
EXTT3=
EXTT4=
EXTT5=
EXTT6=
EXTT7=
EXTT8=
EXTT9=
EXTT10=
EXTT11=
EXTT12=
PLAYORDER=
